<?xml version="1.0" encoding="UTF-8"?>
<svg width="231px" height="297px" viewBox="0 0 231 297" version="1.1" xmlns="http://www.w3.org/2000/svg" xmlns:xlink="http://www.w3.org/1999/xlink">
    <!-- Generator: Sketch 43.2 (39069) - http://www.bohemiancoding.com/sketch -->
    <title>bride-svgrepo-com</title>
    <desc>Created with Sketch.</desc>
    <defs></defs>
    <g id="Page-1" stroke="none" stroke-width="1" fill="none" fill-rule="evenodd">
        <g id="bride-svgrepo-com" fill-rule="nonzero" fill="#8899a7">
            <path d="M222.178,232.659 C233.275,175.576 221.227,132.586 209.232,106.416 C200.001,86.273 189.175,72.839 183.175,66.252 L183.175,48.908 C183.175,27.435 165.935,9.84 144.414,9.84 C143.72,9.84 143.147,9.86 142.434,9.9 C134.889,3.491 125.652,0 115.621,0 C105.59,0 95.959,3.524 88.382,9.993 C87.73,9.969 86.994,9.958 86.257,9.958 C64.733,9.958 47.175,27.362 47.175,48.908 L47.175,62.772 C43.175,66.947 29.548,81.584 18.168,106.416 C6.238,132.444 -4.483,180.984 6.352,237.877 C2.387,247.087 0.145,256.647 0.145,265.019 C0.145,267.936 1.839,270.589 4.479,271.829 C45.418,291.048 84.023,297.002 116.145,297.001 C133.053,297.001 148.171,295.351 160.88,293.116 C200.907,286.079 225.972,272.166 227.02,271.577 C229.39,270.245 230.856,267.738 230.856,265.019 C230.856,255.051 227.652,243.398 222.178,232.659 Z M62.439,87.929 L62.439,87.929 C63.439,77.939 66.131,69.553 71.082,63.606 C79.58,53.398 93.175,48.355 115.175,48.186 L115.175,48.183 C132.175,48.183 147.773,53.267 156.742,63.294 C168.982,76.978 170.959,96.967 170.998,107.479 C105.648,103.146 92.871,81.281 92.005,79.644 C91.038,76.764 88.525,74.952 85.478,74.748 C82.429,74.525 79.589,76.459 78.268,79.256 C73.369,89.63 67.331,97.914 62.29,103.789 C61.867,98.368 62.073,92.49 62.439,87.929 Z M61.488,125.813 C62.125,125.309 75.069,114.931 86.298,96.151 C97.145,106.247 121.391,119.873 174.124,122.726 C174.377,124.789 174.253,128.301 172.686,132.744 C170.662,138.476 167.741,141.505 166.408,142.38 C164.852,141.87 163.164,141.875 161.597,142.418 C159.628,143.1 158.031,144.567 157.185,146.472 C149.086,164.697 133.351,185.979 115.665,185.979 C97.941,185.979 82.196,164.633 74.099,146.353 C73.222,144.375 71.536,142.871 69.472,142.223 C67.859,141.716 66.137,141.773 64.578,142.357 C63.227,141.454 60.338,138.428 58.333,132.747 C57.637,130.773 57.229,128.986 57.008,127.423 C58.61,127.381 60.189,126.841 61.488,125.813 Z M82.91,212.5 C87.065,212.5 90.176,209.494 90.176,205.339 L90.176,192.183 C98.176,197.629 106.177,201.023 115.33,201.023 C124.759,201.023 133.176,197.427 141.176,191.687 L141.176,205.339 C141.176,209.494 144.955,212.5 149.111,212.5 L177.196,212.5 C186.96,212.5 197.088,221.077 204.52,232.17 C185.174,233.523 143.078,239.202 115.509,262.271 C87.941,239.203 45.843,233.477 26.498,232.124 C33.93,221.032 44.058,212.5 53.822,212.5 L82.91,212.5 Z M209.851,214.459 C200.012,203.572 188.645,197.5 177.195,197.5 L156.175,197.5 L156.175,176.678 C161.175,170.675 165.12,164.061 168.424,157.424 C169.717,157.193 171.131,156.768 172.418,156.154 C178.327,153.331 183.745,146.451 186.815,137.751 C190.351,127.73 189.959,118.246 186.045,112.409 C186.244,108.322 186.31,101.377 185.194,93.21 C188.788,98.821 192.586,105.466 196.129,113.289 C205.949,134.974 215.581,169.207 209.851,214.459 Z M86.251,25.003 C87.801,25.003 89.037,25.069 89.945,25.204 C92.323,25.558 94.74,24.758 96.426,23.052 C101.528,17.889 108.447,15.045 115.642,15.045 C122.871,15.045 129.517,17.872 134.59,23.005 C136.276,24.71 138.681,25.506 141.051,25.157 C142.243,24.979 143.253,24.886 144.435,24.886 C157.661,24.886 168.175,35.731 168.175,48.908 L168.175,53.819 C168.175,53.661 167.907,53.498 167.769,53.34 C155.82,39.935 137.175,33.136 115.175,33.136 L115.175,33.14 C90.175,33.33 73.175,39.207 62.175,51.061 L62.175,48.908 C62.175,35.657 73.023,25.003 86.251,25.003 Z M47.508,86.196 C46.508,92.936 46.965,101.263 47.827,109.336 C41.51,114.348 39.86,125.463 44.193,137.751 C46.243,143.56 49.369,148.712 53.042,152.261 C56.073,155.189 59.295,156.958 62.609,157.47 C66.071,164.42 70.175,171.343 75.175,177.559 L75.175,197.5 L53.822,197.5 C41.25,197.5 28.829,204.784 18.372,217.8 C11.721,170.889 21.64,135.585 31.7,113.369 C36.869,101.954 42.508,92.869 47.508,86.196 Z M158.276,278.297 C124.467,284.242 72.609,285.79 15.499,260.323 C16.015,256.026 17.206,251.506 18.907,247.029 C31.289,247.472 83.267,250.939 110.189,277.861 C111.658,279.329 113.584,280.064 115.508,280.064 C117.433,280.064 119.359,279.329 120.827,277.861 C147.685,251.003 199.723,247.489 212.11,247.032 C213.84,251.583 215.042,256.18 215.544,260.541 C207.236,264.527 186.765,273.289 158.276,278.297 Z" id="Shape"></path>
        </g>
    </g>
</svg>