<?xml version="1.0" encoding="UTF-8"?>
<svg width="43px" height="48px" viewBox="0 0 43 48" version="1.1" xmlns="http://www.w3.org/2000/svg" xmlns:xlink="http://www.w3.org/1999/xlink">
    <!-- Generator: Sketch 43.2 (39069) - http://www.bohemiancoding.com/sketch -->
    <title>cheers</title>
    <desc>Created with Sketch.</desc>
    <defs>
        <path d="M28.313,44.032 L28.725,45.989 L40.468,43.518 L40.056,41.561 L35.164,42.59 L33.296,33.714 C34.953,33.139 36.356,32.034 37.305,30.521 C38.433,28.722 38.773,26.596 38.262,24.534 L32.97,3.198 L21.187,5.677 L21.64,3.066 L8.009,0.198 L2.717,21.534 C2.206,23.596 2.546,25.722 3.674,27.521 C4.623,29.034 6.026,30.139 7.683,30.714 L5.815,39.59 L0.923,38.561 L0.511,40.518 L12.254,42.989 L12.666,41.032 L7.773,40.002 L9.641,31.126 C9.849,31.143 10.058,31.159 10.265,31.159 C11.798,31.159 13.295,30.702 14.597,29.819 C16.355,28.627 17.523,26.819 17.886,24.726 L20.231,11.201 L23.097,27.726 C23.46,29.819 24.628,31.627 26.386,32.819 C27.688,33.702 29.184,34.159 30.718,34.159 C30.925,34.159 31.134,34.143 31.342,34.126 L33.21,43.002 L28.313,44.032 Z M9.485,2.553 L19.339,4.626 L17.686,14.158 L16.957,13.429 C15.605,12.076 13.584,11.66 11.805,12.372 C10.642,12.838 9.305,12.462 8.553,11.459 L7.594,10.18 L9.485,2.553 Z M13.472,28.164 C12.169,29.049 10.6,29.357 9.058,29.033 C7.516,28.708 6.205,27.794 5.368,26.459 C4.531,25.124 4.279,23.546 4.658,22.016 L6.973,12.683 C8.269,14.389 10.557,15.028 12.549,14.229 C13.58,13.815 14.757,14.057 15.544,14.844 L17.269,16.569 L15.914,24.385 C15.644,25.938 14.777,27.28 13.472,28.164 Z M31.493,5.553 L33.261,12.682 L31.54,13.973 C30.826,14.508 29.888,14.593 29.089,14.194 C27.416,13.358 25.403,13.684 24.079,15.007 L23.09,15.996 L21.639,7.627 L31.493,5.553 Z M27.506,31.164 C26.201,30.28 25.335,28.937 25.066,27.384 L23.509,18.405 L25.494,16.42 C26.208,15.706 27.294,15.529 28.196,15.982 C29.677,16.722 31.417,16.566 32.741,15.572 L33.784,14.79 L36.32,25.017 C36.699,26.547 36.447,28.124 35.61,29.46 C34.773,30.795 33.462,31.709 31.92,32.034 C30.379,32.357 28.81,32.05 27.506,31.164 Z" id="path-1"></path>
    </defs>
    <g id="Page-1" stroke="none" stroke-width="1" fill="none" fill-rule="evenodd">
        <g id="cheers" transform="translate(1.000000, 1.000000)" fill-rule="nonzero">
            <g id="Shape">
                <use fill="#8899a7" fill-rule="evenodd" xlink:href="#path-1"></use>
                <path stroke="#777777" stroke-width="0.7" d="M35.4344247,42.175459 L33.700782,33.9378717 C35.3155038,33.3086336 36.6710265,32.1904409 37.6015018,30.706975 C38.7800602,28.8273415 39.1355267,26.603826 38.6017236,24.4498105 L33.3097066,3.11374205 L33.2284093,2.78597167 L32.8979417,2.85549802 L21.6200904,5.22822089 L21.9848483,3.12583006 L22.042586,2.79304196 L21.7120631,2.72349905 L8.08106315,-0.144500953 L7.7505919,-0.214033014 L7.66929336,0.113742055 L2.37729336,21.4497421 C1.84347334,23.603826 2.19893983,25.8273415 3.37746945,27.7069291 C4.30797191,29.1904383 5.66349613,30.3086335 7.27821803,30.9378717 L5.54457528,39.175459 L0.995043682,38.218495 L0.652598616,38.1464639 L0.580507575,38.4888963 L0.168507575,40.4458963 L0.096396789,40.7884226 L0.43893014,40.8604995 L12.1819301,43.3314995 L12.5243959,43.4035623 L12.5964924,43.0611037 L13.0084924,41.1041037 L13.0805976,40.7616042 L12.7380966,40.6895061 L8.18757424,39.7315993 L9.92046033,31.4976073 C10.0491957,31.5055331 10.1534001,31.509 10.265,31.509 C11.8754817,31.509 13.4396751,31.0267808 14.7934493,30.1086682 C16.6303034,28.8632017 17.8516733,26.9720925 18.2308519,24.7858095 L20.2310513,13.2494783 L22.752148,27.7858091 C23.1313267,29.9720925 24.3526966,31.8632017 26.1895793,33.1086876 C27.543629,34.0269871 29.1068852,34.509 30.718,34.509 C30.8295999,34.509 30.9338043,34.5055331 31.0625397,34.4976073 L32.7954139,42.7315429 L28.2409598,43.6894942 L27.8983905,43.7615478 L27.9705076,44.1041037 L28.3825076,46.0611037 L28.4546041,46.4035623 L28.7970699,46.3314995 L40.5400699,43.8604995 L40.8826032,43.7884226 L40.8104924,43.4458963 L40.3984924,41.4888963 L40.3264014,41.1464639 L39.9839563,41.218495 L35.4344247,42.175459 Z M9.74344061,2.9650295 L18.9364383,4.89897349 L17.4564247,13.4334499 L17.2044874,13.1815126 C15.7529467,11.7288983 13.5831933,11.2833321 11.6749503,12.0470584 C10.6592325,12.4540441 9.49031177,12.1257071 8.8330335,11.2490447 L7.97369704,10.102964 L9.74344061,2.9650295 Z M7.15119663,13.4183909 C8.58379902,14.8511281 10.7607191,15.3233926 12.679296,14.553843 C13.5800474,14.1921446 14.6084139,14.4033886 15.2965126,15.0914874 L16.893131,16.6881057 L15.5691439,24.3252149 C15.3154143,25.7846298 14.5019151,27.0435991 13.2757081,27.8742251 L13.2753495,27.8744683 C12.0517179,28.7055612 10.5798242,28.9951181 9.12996933,28.6904793 C7.68070018,28.3850237 6.4508672,27.5272638 5.66453705,26.2730813 C4.87806378,25.0186705 4.64151806,23.5381697 4.99773195,22.1001558 L7.15119663,13.4183909 Z M31.2345879,5.96505704 L32.865472,12.5411729 L31.329974,13.6930195 C30.7218792,14.1486647 29.9256,14.2205625 29.245368,13.8808721 C27.437406,12.9774315 25.2618373,13.3302683 23.8316061,14.7594191 L23.3195968,15.2714285 L22.041544,7.8999437 L31.2345879,5.96505704 Z M23.8848755,18.5240993 L25.7414874,16.6674874 C26.3493031,16.0596717 27.2723861,15.9098047 28.0389207,16.2947716 C29.6397058,17.0946246 31.5215703,16.9251519 32.9511353,15.8518985 L33.5714009,15.386848 L35.9802886,25.1012386 C36.33645,26.5390409 36.1000146,28.0186057 35.3134003,29.2741812 C34.5271328,30.5282638 33.2972998,31.3860237 31.847818,31.6915241 C30.398043,31.9954027 28.9263023,31.7058759 27.7026992,30.8745014 L27.7022919,30.8742251 C26.4766396,30.0439748 25.6637701,28.7843468 25.4108648,27.3242649 L23.8848755,18.5240993 Z"></path>
            </g>
        </g>
    </g>
</svg>