<?xml version="1.0" encoding="UTF-8"?>
<svg width="472px" height="485px" viewBox="0 0 472 485" version="1.1" xmlns="http://www.w3.org/2000/svg" xmlns:xlink="http://www.w3.org/1999/xlink">
    <!-- Generator: Sketch 43.2 (39069) - http://www.bohemiancoding.com/sketch -->
    <title>Shape</title>
    <desc>Created with Sketch.</desc>
    <defs></defs>
    <g id="Page-1" stroke="none" stroke-width="1" fill="none" fill-rule="evenodd">
        <path d="M313.79,459.503198 C268.33,451.493198 229.69,443.683198 228.09,442.283198 C226.09,440.683198 225.49,437.683198 226.29,433.073198 C227.29,426.863198 226.89,426.463198 222.89,427.263198 C220.49,427.863198 184.44,434.473198 142.59,441.683198 C79.11,452.893198 66.5,454.703198 64.29,452.293198 C60.89,449.093198 33.25,293.093198 33.25,278.283198 C33.25,243.843198 57.68,207.393198 89.92,193.373198 C99.53,189.173198 103.14,186.563198 102.54,184.363198 C101.94,182.763198 95.93,149.123198 89.12,109.673198 C78.9,51.1931975 76.1,38.1831975 73.5,38.1831975 C71.7,38.1831975 58.08,40.3831975 43.26,43.1931975 L16.23,48.2031975 L12.83,44.0031975 C10.23,40.8031975 9.83,38.7931975 11.23,35.9931975 C12.43,33.9931975 14.03,32.1831975 14.83,32.1831975 C15.63,32.1831975 46.07,26.7831975 82.31,20.3731975 C127.77,12.1631975 149.39,9.16319752 152,10.3631975 C156,12.7631975 156.41,18.7731975 152.6,21.9731975 C150.6,23.5731975 99.93,34.1831975 93.93,34.1831975 C92.33,34.1831975 94.13,46.6031975 105.75,112.483198 L118.16,183.973198 L131.78,185.373198 C172.63,189.383198 205.27,215.013198 217.08,252.453198 C218.28,256.263198 222.89,280.693198 227.49,306.523198 C231.9,332.353198 236.1,355.783198 236.7,358.583198 C237.7,361.993198 240.7,349.173198 245.71,320.933198 C256.12,262.663198 258.73,255.453198 275.95,237.233198 C294.77,217.403198 318.2,206.393198 341.83,206.393198 C348.24,206.393198 353.64,205.993198 353.64,205.393198 C353.64,204.993198 359.45,171.353198 366.66,130.903198 C373.87,90.4531975 379.68,56.8131975 379.68,56.0131975 C379.68,55.4131975 367.26,52.8131975 352.25,50.2031975 C319.41,44.7931975 317.21,43.7931975 318.01,36.5931975 C318.41,32.3831975 319.81,30.9831975 323.82,30.5831975 C330.83,29.7831975 456.18,52.0131975 459.19,54.6131975 C462.6,57.4131975 462.39,63.2231975 458.99,66.0231975 C456.79,68.0231975 449.58,67.2231975 426.75,63.2231975 C410.53,60.4231975 396.71,58.4231975 396.31,59.0131975 C394.51,60.8131975 369.48,204.993198 370.48,207.593198 C371.08,208.993198 374.08,210.593198 377.29,211.193198 C386.7,213.393198 407.53,228.213198 416.14,239.223198 C427.35,253.243198 435.16,270.863198 437.77,287.483198 C439.97,303.303198 439.77,304.903198 421.95,406.633198 C416.14,439.073198 410.74,467.703198 409.74,470.313198 C408.34,473.513198 406.33,474.723198 402.33,474.523198 C399.1,474.523198 359.45,467.713198 313.79,459.503198 Z M406.1,403.233198 C411.31,373.793198 415.31,349.563198 415.11,349.363198 C413.91,348.163198 263.12,322.333198 262.32,323.133198 C260.32,324.933198 242.3,430.463198 243.7,430.863198 C244.1,430.863198 276.14,436.673198 314.59,443.683198 C353.24,450.493198 387.48,456.303198 390.68,456.503198 L396.69,456.703198 L406.1,403.233198 Z M154.39,423.653198 C195.04,416.443198 228.48,410.233198 228.88,410.033198 C229.08,409.633198 225.28,385.403198 220.07,355.963198 C212.46,312.913198 210.06,302.493198 207.66,302.493198 C201.85,302.493198 59.08,328.123198 57.88,329.323198 C57.08,329.923198 60.48,352.353198 65.09,378.983198 C75.3,437.653198 75.1,436.653198 78.11,436.653198 C79.3,436.673198 113.75,430.863198 154.39,423.653198 Z M421.52,315.523198 C425.92,287.093198 420.12,265.863198 403.5,247.443198 C385.28,227.623198 357.44,218.013198 331.81,222.413198 C306.18,226.823198 285.55,242.433198 274.54,265.463198 C269.73,275.883198 263.93,303.513198 266.13,305.713198 C267.33,307.113198 406.3,332.143198 413.91,332.343198 C418.92,332.543198 419.12,331.943198 421.52,315.523198 Z M131.57,299.303198 C172.62,292.093198 206.86,285.883198 207.26,285.483198 C208.86,283.683198 201.05,252.643198 196.45,243.033198 C181.43,212.593198 146.19,195.373198 112.35,202.383198 C87.12,207.593198 66.09,223.613198 55.68,246.033198 C50.87,256.043198 50.27,260.053198 50.27,277.473198 C50.27,297.903198 52.27,312.513198 55.08,312.513198 C55.87,312.523198 90.32,306.513198 131.57,299.303198 Z" id="Shape" stroke="#8899a7" stroke-width="20" fill="#8899a7" fill-rule="nonzero" transform="translate(236.040758, 242.326599) scale(-1, 1) rotate(-180.000000) translate(-236.040758, -242.326599) "></path>
    </g>
</svg>