<?xml version="1.0" encoding="UTF-8"?>
<svg width="490px" height="324px" viewBox="0 0 490 324" version="1.1" xmlns="http://www.w3.org/2000/svg" xmlns:xlink="http://www.w3.org/1999/xlink">
    <!-- Generator: Sketch 43.2 (39069) - http://www.bohemiancoding.com/sketch -->
    <title>1fbaea77f41cffd7cac194944a13ea14</title>
    <desc>Created with Sketch.</desc>
    <defs></defs>
    <g id="Page-1" stroke="none" stroke-width="1" fill="none" fill-rule="evenodd">
        <g id="1fbaea77f41cffd7cac194944a13ea14" fill-rule="nonzero" fill="#8899a7">
            <path d="M477.942,300.441 L11.731,300.441 C5.326,300.441 0.102,305.665 0.102,312.07 C0.102,318.491 5.326,323.714 11.731,323.714 L477.943,323.714 C484.348,323.714 489.587,318.49 489.587,312.07 C489.587,305.665 484.348,300.441 477.942,300.441 Z" id="Shape"></path>
            <path d="M252.75,72.465 L252.75,62.096 C263.104,56.53 270.131,45.601 270.131,33.008 C270.131,14.803 255.362,0.018 237.141,0.018 C218.936,0.018 204.151,14.803 204.151,33.008 C204.151,46.316 212.018,57.789 223.351,62.997 L223.351,73.134 C114.696,82.991 29.439,174.031 28.754,285.112 L457.156,285.112 C456.442,170.72 366.038,77.58 252.75,72.465 Z M206.499,130.159 C174.084,140.575 149.101,156.293 130.88,176.861 C112.737,197.351 101.077,222.926 95.341,253.101 C94.051,259.957 87.428,264.481 80.556,263.206 C73.684,261.916 69.145,255.308 70.435,248.421 C77.027,213.783 90.615,184.167 111.929,160.085 C133.166,136.097 161.896,117.892 198.757,106.045 C205.427,103.9 212.562,107.568 214.708,114.238 C216.837,120.893 213.168,128.029 206.499,130.159 Z" id="Shape"></path>
        </g>
    </g>
</svg>