<?xml version="1.0" encoding="UTF-8"?>
<svg width="612px" height="410px" viewBox="0 0 612 410" version="1.1" xmlns="http://www.w3.org/2000/svg" xmlns:xlink="http://www.w3.org/1999/xlink">
    <!-- Generator: Sketch 43.2 (39069) - http://www.bohemiancoding.com/sketch -->
    <title>Shape</title>
    <desc>Created with Sketch.</desc>
    <defs></defs>
    <g id="Page-1" stroke="none" stroke-width="1" fill="none" fill-rule="evenodd">
        <g id="email-filled-closed-envelope" fill-rule="nonzero" fill="#000000">
            <path d="M306.768,245.814 L306.899,245.814 C311.514,245.814 316.075,244.475 319.765,242.037 L320.766,241.394 C320.984,241.252 321.212,241.123 321.441,240.97 L333.099,231.325 L611.358,1.701 C610.782,0.906 609.801,0.362 608.756,0.362 L3.233,0.362 C2.482,0.362 1.785,0.634 1.23,1.091 L292.355,241.045 C296.024,244.083 301.259,245.814 306.768,245.814 Z M0,32.899 L0,373.269 L208.55,204.798 L0,32.899 Z M403.668,205.941 L612,373.356 L612,34.031 L403.668,205.941 Z M337.431,260.585 C329.126,267.399 318.263,271.155 306.855,271.155 C295.404,271.155 284.551,267.421 276.268,260.639 L228.503,221.245 L0,405.806 L0,406.393 C0,408.146 1.502,409.637 3.276,409.637 L608.767,409.637 C610.508,409.637 611.999,408.146 611.999,406.382 L611.999,405.838 L383.693,222.4 L337.431,260.585 Z" id="Shape"></path>
        </g>
    </g>
</svg>