<?xml version="1.0" encoding="UTF-8"?>
<svg width="137px" height="199px" viewBox="0 0 137 199" version="1.1" xmlns="http://www.w3.org/2000/svg" xmlns:xlink="http://www.w3.org/1999/xlink">
    <g stroke="none" stroke-width="1" fill="none" fill-rule="evenodd" stroke-linejoin="round">
        <g transform="translate(3.000000, 2.000000)" stroke="#dae1e7" stroke-width="5" fill="#dae1e7" fill-rule="nonzero">
            <path d="M58.04,130.6 C40.89,128.5 26.94,121.2 16.2,108.8 C5.46,96.3 0.094,81.98 0.094,65.85 C0.094,47.91 6.47,32.55 19.21,19.76 C31.96,6.98 47.34,0.584 65.36,0.584 C83.22,0.584 98.6,7 111.4,19.82 C124.2,32.65 130.6,47.99 130.6,65.85 C130.6,81.98 125.2,96.3 114.5,108.8 C103.7,121.2 89.71,128.5 72.56,130.6 L72.56,155.1 L96.8,155.1 L96.8,169.6 L72.56,169.6 L72.56,193.8 L58.04,193.8 L58.04,169.6 L33.97,169.6 L33.97,155.1 L58.04,155.1 L58.04,130.6 Z M65.36,116.6 C79.29,116.6 91.23,111.6 101.2,101.7 C111.1,91.82 116.1,79.86 116.1,65.85 C116.1,51.85 111.2,39.89 101.2,29.97 C91.33,20.06 79.37,15.1 65.36,15.1 C51.36,15.1 39.4,20.08 29.48,30.03 C19.57,39.98 14.61,51.92 14.61,65.85 C14.61,79.86 19.57,91.82 29.48,101.7 C39.4,111.6 51.36,116.6 65.36,116.6 L65.36,116.6 Z"></path>
        </g>
    </g>
</svg>