<?xml version="1.0" encoding="UTF-8"?>
<svg width="164px" height="164px" viewBox="0 0 164 164" version="1.1" xmlns="http://www.w3.org/2000/svg" xmlns:xlink="http://www.w3.org/1999/xlink">
    <g stroke="none" stroke-width="1" fill="none" fill-rule="evenodd" stroke-linejoin="round">
        <g transform="translate(-166.000000, -16.000000)" stroke="#dae1e7" stroke-width="5" fill="#dae1e7" fill-rule="nonzero">
            <path d="M326.7,64.2 L312.2,64.2 L312.2,44.14 L285.6,70.69 C295.1,82.65 299.9,96.3 299.9,111.5 C299.9,129.5 293.5,144.8 280.7,157.6 C267.9,170.4 252.5,176.8 234.6,176.8 C216.7,176.8 201.3,170.4 188.5,157.6 C175.7,144.8 169.3,129.5 169.3,111.5 C169.3,93.67 175.7,78.34 188.5,65.56 C201.3,52.77 216.7,46.38 234.6,46.38 C249.9,46.38 263.5,51.1 275.4,60.54 L302,33.98 L281.9,33.98 L281.9,19.47 L326.7,19.47 L326.7,64.2 Z M234.6,162.4 C248.5,162.4 260.5,157.4 270.4,147.5 C280.4,137.5 285.4,125.5 285.4,111.5 C285.4,97.5 280.4,85.56 270.5,75.65 C260.6,65.73 248.6,60.78 234.6,60.78 C220.7,60.78 208.7,65.75 198.8,75.71 C188.8,85.66 183.9,97.6 183.9,111.5 C183.9,125.5 188.8,137.5 198.8,147.5 C208.7,157.4 220.7,162.4 234.6,162.4 L234.6,162.4 Z"></path>
        </g>
    </g>
</svg>