<?xml version="1.0" encoding="UTF-8"?>
<svg width="1130px" height="562px" viewBox="0 0 1130 562" version="1.1" xmlns="http://www.w3.org/2000/svg" xmlns:xlink="http://www.w3.org/1999/xlink">
    <!-- Generator: Sketch 43.2 (39069) - http://www.bohemiancoding.com/sketch -->
    <title>Combined Shape</title>
    <desc>Created with Sketch.</desc>
    <defs></defs>
    <g id="Page-1" stroke="none" stroke-width="1" fill="none" fill-rule="evenodd" stroke-linejoin="round">
        <path d="M716.659317,266.613169 L721.08031,264.34018 L723.89997,263.16541 L726.24947,265.04501 L730.47857,264.34016 L733.76787,265.04501 L735.19895,266.73024 L735.94438,269.54964 L736.35232,273.73815 L736.82222,277.96725 L737.99697,281.9614 L738.93677,282.9012 L741.05132,283.3711 L745.21846,282.98235 L747.90545,282.17497 L750.17378,281.8076 L751.8697,282.32877 L755.14831,282.9012 L758.90751,282.19635 L761.02206,279.142 L762.90166,275.3828 L763.60651,272.0935 L764.54631,268.33431 L767.36571,263.87026 L769.48026,261.75571 L772.06471,260.81591 L775.35401,260.58096 L778.17341,259.40621 L780.36911,257.52661 L783.3423,251.65286 L786.86655,248.59851 L789.451,248.12861 L792.2704,250.24316 L794.85485,253.29751 L796.88825,255.88196 L797.9092,259.17126 L798.61405,264.10521 L800.7286,267.86441 L804.25285,271.6236 L808.49264,274.71853 L810.36155,276.7925 L811.0664,279.6119 L813.18095,281.4915 L817.45062,282.22624 L820.22944,281.0216 L822.957,280.85711 L824.79602,281.19459 L827.27794,285.01575 L827.51289,292.53415 L827.74784,296.76325 L828.21774,298.8778 L828.80086,300.39003 L827.88244,303.13679 L827.98279,305.22144 L825.50087,307.48979 L824.22359,309.45054 L823.75369,311.56509 L824.69349,313.20974 L826.10319,314.38449 L829.15754,314.61944 L833.62159,314.61944 L835.97109,313.67964 L839.96524,310.15539 L842.31474,308.74569 L845.36909,308.98064 L848.18848,311.09519 L850.30303,313.67964 L853.82728,316.02914 L856.41173,316.26409 L857.58648,315.08934 L858.76123,313.20974 L859.23113,309.45054 L861.84547,304.1898 L862.75538,300.05255 L864.16508,296.29335 L866.98448,293.239 L870.97863,290.8895 L873.32813,289.4798 L877.08733,289.24485 L880.84652,288.54 L882.49117,286.42545 L882.72612,282.9012 L883.90087,280.5517 L886.25037,279.84685 L889.53967,280.78665 L892.35907,280.78665 L895.17847,279.142 L896.58817,277.96725 L899.64252,277.96725 L902.93182,280.0818 L906.47745,282.55303 L910.45022,281.72645 L912.79972,279.142 L915.38416,278.2022 L918.20356,277.49735 L920.08316,276.08765 L922.43266,275.61775 L925.01711,276.3226 L933.47531,285.2507 L937.05083,288.62115 L940.99371,288.77495 L944.75291,290.4196 L946.86745,292.53415 L949.21695,293.47395 L952.03635,293.47395 L954.38585,292.2992 L956.5004,288.54 L959.3198,284.3109 L960.7295,282.9012 L964.0188,282.66625 L965.8984,281.9614 L967.14361,280.31675 L966.59256,278.53968 L964.4887,277.02745 L963.31395,274.20805 L964.72365,272.32845 L967.54305,271.1537 L971.30225,270.6838 L974.3566,272.79835 L976.7168,274.19736 L980.3628,272.97134 L983.0497,269.74401 L986.1041,267.15956 L989.4446,267.04634 L992.9582,269.10962 L996.6768,268.80421 L999.2613,269.97896 L1002.3156,271.38865 L1004.9001,271.85855 L1008.6593,270.91875 L1015.0029,269.74401 L1018.9971,268.56926 L1021.8165,268.08867 L1024.4009,268.27235 L1026.9854,269.03916 L1031.082,270.53001 L1033.8609,272.36903 L1036.3834,274.9129 L1038.263,277.02745 L1041.2661,278.23209 L1043.6668,276.55755 L1046.813,275.37211 L1049.7755,274.9129 L1052.8299,276.55755 L1054.9444,278.6721 L1058.4794,280.91907 L1061.5337,282.70683 L1063.5564,285.43438 L1065.5791,288.90737 L1068.1016,292.06425 L1068.8684,294.41375 L1069.4301,298.26479 L1070.6049,301.0735 L1074.2103,302.637 L1079.2468,304.07659 L1082.9142,305.21075 L1085.7229,306.39619 L1087.9292,306.89598 L1091.3617,307.33599 L1091.8316,309.45054 L1093.6706,311.5544 L1098.9292,313.14778 L1101.9344,312.73984 L1105.2237,312.97479 L1107.5732,314.14954 L1111.0975,316.49904 L1114.3868,318.61359 L1118.3809,319.78834 L1124.7139,319.91007 L1127.7789,319.78834 L1128.2595,321.85162 L1128.4944,325.51898 L1127.7789,328.01159 L1127.544,331.77079 L1127.0741,333.18049 L1123.7848,334.59019 L1121.6702,335.99989 L1120.7304,337.87948 L1120.4955,341.16878 L1120.2605,343.04838 L1118.8508,344.45808 L1117.911,346.10273 L1117.2681,348.21728 L1116.747,351.97648 L1114.8567,354.56093 L1112.5072,357.38033 L1111.5674,359.72983 L1111.8023,363.01913 L1113.1308,365.22552 L1113.447,367.71813 L1111.8023,370.30257 L1109.9227,372.65207 L1108.9829,375.47147 L1109.4528,380.40542 L1109.2179,383.92967 L1106.7466,386.89218 L1102.4663,390.23274 L1099.2688,394.50242 L1097.9403,397.79172 L1094.8859,400.37617 L1093.0063,403.43051 L1090.4219,406.95476 L1090.1869,409.30426 L1091.1267,411.41881 L1091.8316,414.23821 L1092.3122,418.23236 L1092.3012,421.05176 L1091.5963,423.87116 L1091.1264,428.33521 L1091.8313,432.09441 L1091.3614,434.44391 L1088.307,437.7332 L1085.7333,438.77553 L1081.9634,439.6128 L1074.21,439.6128 L1068.8062,440.31765 L1065.2819,441.4924 L1061.2878,443.13705 L1059.4082,445.2516 L1057.9985,446.1914 L1053.0645,446.43704 L1048.4467,445.8753 L1046.0053,444.88423 L1041.317,440.78755 L1038.0277,436.08855 L1034.9734,432.09441 L1034.0634,429.46938 L1032.6239,427.39541 L1032.154,424.57601 L1031.4491,423.16631 L1028.619,422.18593 L1024.8705,421.52166 L1021.5812,418.70226 L1019.4667,414.70811 L1016.6473,412.82851 L1014.7677,411.18386 L1012.4182,410.94891 L1010.3036,412.12366 L1007.4842,413.53336 L1003.96,414.00326 L999.9658,414.94306 L997.8513,417.76246 L995.7367,420.34691 L994.0109,420.73566 L992.2125,421.75661 L989.863,420.58186 L986.8086,420.11196 L982.1096,421.52166 L978.5854,423.23895 L976.8489,424.87292 L973.8757,425.33213 L971.5369,423.40126 L969.42235,421.75661 L964.86646,421.2974 L959.30881,421.71603 L955.5603,420.58186 L952.50595,417.99741 L950.38071,417.10888 L947.80695,415.88286 L944.51766,414.70811 L939.11381,414.94306 L931.36046,415.88286 L924.54691,416.58771 L922.66731,418.23236 L919.61296,419.64206 L914.91396,421.28671 L911.38972,421.75661 L909.27517,423.16631 L908.10042,424.34106 L907.07947,427.2523 L906.93636,431.24645 L904.96492,434.91381 L902.14552,438.2031 L899.64222,443.13705 L898.15137,447.74421 L897.784,452.24883 L895.89371,456.5292 L894.23837,459.3486 L892.36946,462.40295 L889.60133,465.60041 L887.65977,467.8068 L884.13552,467.8068 L880.61127,466.867 L878.02683,467.10195 L876.14723,469.21649 L873.32783,470.39124 L871.21328,470.62619 L870.03853,472.50579 L868.86378,475.79509 L865.10458,479.08439 L862.05023,481.66884 L860.18132,482.71117 L857.58618,483.78339 L855.23668,483.78339 L852.88718,485.19309 L849.36293,489.18724 L847.01344,490.36199 L844.19404,491.06684 L841.84454,489.65714 L840.19989,487.77754 L839.26009,486.83774 L835.97079,486.36784 L832.47643,486.05174 L830.84247,484.87699 L829.86209,483.07854 L829.62714,479.78924 L827.98249,478.84944 L825.63299,478.14459 L823.75339,479.78924 L820.93399,479.78924 L819.28934,479.08439 C818.84327,478.7473 819.38977,477.23395 818.06332,477.77722 L817.17479,476.26499 L816.23499,475.32519 L812.24085,475.32519 L809.1865,477.43974 L806.13215,478.61449 L803.5477,478.84944 L802.37295,480.25914 L800.7283,485.42804 L799.08365,491.53674 L797.9089,496.23574 L795.00835,499.53573 L790.76856,500.38369 L782.4022,500.46479 L777.23331,501.87448 L772.53431,503.75408 L769.16386,505.35815 L765.00522,505.17447 L759.61206,504.45893 L753.27692,504.78572 L748.56941,503.75408 L745.28012,503.51913 L739.87627,505.39873 L734.70737,506.57348 L728.59867,508.21813 L725.54432,509.39288 L724.83947,511.27248 L722.25502,515.73653 L719.67057,518.55593 L718.26087,520.20058 L717.55602,524.19473 L717.38303,529.45547 L718.03661,533.9601 L720.61037,536.17717 L725.07442,539.70142 L727.18897,542.75577 L726.95402,546.04507 L723.19482,546.74992 L718.26087,546.51497 L714.26673,549.09942 L710.27258,553.09357 L708.11745,554.42212 L705.10368,555.44307 L700.56699,555.16754 L697.35033,554.73822 L693.59113,554.73822 L691.71153,555.44307 L689.45387,556.4854 L685.44903,556.02619 L682.78343,555.44307 L679.25919,555.91297 L676.67474,557.79257 L673.62039,559.20227 L663.98744,559.67217 L655.51855,559.48849 L649.65549,557.79257 L643.5468,557.08772 L639.55265,556.38287 L633.49303,556.25045 L626.6304,557.08772 L622.16635,558.49742 L614.88291,558.49742 L608.34489,558.03821 L602.43056,555.20812 L597.49661,551.68387 L593.26751,547.45477 L591.15296,546.04507 L586.51592,545.84001 L583.79905,545.10527 L581.98992,541.58102 L580.58022,539.46647 L578.46567,538.76162 L574.23657,536.64707 L568.13638,529.67755 L562.47838,521.61028 L559.76151,518.93399 L557.54443,517.39187 L553.49901,516.88139 L548.72956,512.93851 L546.51248,512.44723 L543.64181,512.50923 L539.69893,513.62202 L537.37932,511.98806 L532.68032,511.07815 L530.52519,508.31001 L530.06598,504.92887 L531.00578,502.10947 L531.24073,499.52503 L529.59608,497.41048 L525.27514,493.64059 L521.84273,490.12703 L518.83965,487.2051 L517.48121,484.58007 L516.90879,480.96398 L515.96899,475.56013 L515.59093,472.18968 L513.98686,469.55396 L512.29094,467.85806 L510.74882,465.86523 L510.33019,462.40294 L509.6958,460.85013 L505.63119,457.46899 L504.6807,456.05929 L504.5889,453.70979 L505.63123,450.18554 L505.76365,445.38401 L505.63123,440.55259 L507.32715,435.9775 L510.46265,433.67709 L512.78226,431.51128 L515.68281,428.74314 L516.71446,426.3018 L516.28513,422.60456 L515.72339,418.37546 L515.26418,415.6479 L515.49913,413.7683 L517.151511,412.525248 L514.29674,413.15964 L513.91715,407.84537 L513.15796,400.25355 L510.50083,396.45764 L506.70492,396.45764 L500.25187,396.83723 L496.45596,394.1801 L494.17841,392.66173 L490.3825,393.04132 L486.96619,392.66173 L485.44782,389.24541 L485.06823,386.58828 L480.51314,385.82909 L477.47641,383.93114 L472.16214,382.03318 L466.46827,381.65359 L462.29277,383.55155 L458.87645,387.72705 L455.46013,392.28214 L450.90504,393.04132 L439.51731,392.66173 L436.10099,390.76378 L425.09286,390.00459 L420.15817,390.00459 L407.25208,378.61687 L399.28067,371.78423 L395.48476,368.7475 L392.06844,368.7475 L388.65212,370.64545 L382.95826,371.02505 L378.78276,369.88627 L374.22766,366.84954 L370.43176,365.33118 L364.73789,363.81282 L360.1828,361.53527 L356.76648,357.35977 L354.10934,355.46182 L351.07262,354.70263 L347.6563,351.66591 L343.86039,350.52713 L338.16652,350.14754 L336.64816,349.38836 L333.23184,350.52713 L331.71348,352.42509 L328.29716,353.94345 L324.88084,354.32304 L322.60329,353.18427 L321.08493,350.14754 L319.56656,347.11081 L316.90943,345.97204 L311.97474,344.45368 L308.55843,343.6945 L303.62374,344.83327 L302.10538,346.35163 L301.3462,352.80468 L302.48497,363.05363 L300.20742,367.60873 L298.30947,374.82096 L298.30947,379.37605 L297.1707,382.79237 L294.51356,383.55155 L291.09724,382.41277 L286.92174,381.65359 L283.88501,381.65359 L282.36665,383.55155 L280.46869,387.72705 L277.05237,391.90255 L273.25646,396.83723 L270.97892,399.11478 L270.59933,406.32701 L269.84015,409.74333 L268.70137,413.15964 L265.28505,413.91883 L262.24833,410.50251 L259.97078,408.98414 L259.2116,407.46578 L256.55446,406.7066 L255.0361,407.84537 L252.37896,408.98414 L248.58305,407.08619 L247.44428,404.42905 L244.02796,403.29028 L241.37082,403.29028 L239.09328,406.7066 L237.19532,409.74333 L233.39941,411.64128 L230.74227,414.67801 L226.56677,415.0576 L221.2525,413.53924 L216.31782,410.50251 L203.41172,408.22496 L197.71786,406.7066 L195.44031,403.29028 L193.92195,401.01273 L194.68113,399.87396 L196.1995,397.21682 L195.44031,394.55969 L192.02399,388.86582 L182.91381,382.41277 L177.21995,378.99646 L172.66486,376.71891 L170.7669,371.40464 L165.07304,364.19241 L162.4159,360.77609 L158.99958,358.49854 L155.58326,355.08222 L152.92612,350.90672 L149.8894,345.59245 L147.23226,343.6945 L143.43635,342.17613 L141.1588,343.6945 L140.77921,345.59245 L138.12208,346.35163 L133.94658,344.83327 L131.28944,341.79654 L129.39148,339.89859 L128.25271,335.72308 L127.49353,331.54758 L124.4568,326.6129 L120.2813,322.05781 L118.00375,319.02108 L113.44866,318.2619 L108.13439,315.98435 L105.85684,313.32722 L104.71807,309.53131 L100.54257,303.45785 L97.12625,298.90276 L94.46911,295.86603 L91.05279,293.58849 L90.29361,289.79258 L89.53443,285.99667 L85.35893,281.06198 L83.46097,279.16403 L79.66507,278.40485 L77.38752,278.40485 L74.73038,280.3028 L69.416109,279.54362 L63.342653,275.36812 L61.824289,273.09057 L61.824289,268.91507 L60.685516,265.49875 L56.889606,264.35998 L52.714106,261.70284 L51.195742,257.52734 L50.43656,253.35184 L51.575333,251.45389 L51.195742,247.27839 L47.399832,245.38043 L45.501877,240.44575 L43.983513,236.27025 L42.465149,230.57638 L40.187603,227.91925 L40.187603,222.22538 L38.669239,219.94784 L35.252921,216.91111 L30.318238,213.87438 L28.420283,210.45806 L28.420283,207.42133 L29.938647,205.14379 L33.734557,202.48665 L35.252921,200.96829 L35.252921,196.0336 L38.669239,192.23769 L42.84474,188.82138 L44.742695,184.26628 L44.742695,180.84997 L42.085558,177.81324 L39.808012,175.91528 L39.808012,173.25815 L39.808012,170.9806 L37.910057,168.32346 L31.836602,165.28673 L25.383555,159.97246 L19.68969,156.17655 L15.51419,151.62146 L12.097871,147.06637 L10.199916,144.40923 L9.440734,141.75209 L11.338689,139.85414 L12.477462,136.43782 L11.71828,133.40109 L7.163188,128.46641 L3.746869,125.05009 L1.848914,121.63377 L2.228505,119.35623 L3.746869,119.35623 L4.506051,115.93991 L4.885642,112.144 L6.783597,110.62563 L9.440734,111.00522 L11.71828,112.52359 L10.959098,116.3195 L13.236644,118.97664 L16.273372,120.11541 L17.791736,123.15214 L17.791736,126.94805 L19.310099,129.60518 L19.310099,133.40109 L20.069281,135.29905 L21.587645,136.05823 L23.4856,136.05823 L25.003964,133.78068 L25.003964,129.60518 L25.763146,124.6705 L29.559056,118.59704 L33.354966,114.80113 L35.632512,111.76441 L39.808012,109.10727 L42.84474,106.07054 L45.501877,102.27463 L51.954924,100.37668 L56.889606,98.85831 L61.065107,98.85831 L64.861017,100.37668 L68.277336,98.09913 L73.59161,95.44199 L76.62834,93.54404 L81.18343,93.92363 L84.97934,96.58077 L89.91402,98.47872 L94.8487,99.2379 L99.4038,97.33995 L101.30175,94.30322 L100.54257,90.50731 L101.68134,88.22977 L104.71807,86.7114 L110.41193,85.57263 L114.96703,87.09099 L118.00375,86.7114 L121.42007,83.29508 L122.93844,78.739992 L124.83639,74.944082 L127.11394,72.666536 L130.15067,73.046127 L132.04862,73.805309 L134.70576,73.425718 L137.36289,70.009399 L139.64044,66.59308 L142.67717,66.213489 L144.19553,68.111444 L146.85267,70.768581 L149.8894,71.148172 L153.68531,69.250217 L156.72203,64.315534 L158.61999,60.899216 L158.61999,57.103306 L159.75876,55.205351 L164.69344,54.446169 L168.86895,52.168623 L172.66486,52.548214 L176.46076,52.927805 L179.1179,52.168623 L181.77504,51.789032 L185.19136,52.168623 L188.22809,52.927805 L192.40359,52.168623 L195.06072,51.02985 L197.33827,47.23394 L198.47704,44.197213 L201.51377,42.678849 L203.79132,41.160485 L208.34641,41.160485 L215.55864,40.780894 L222.77086,36.605393 L229.98309,32.809483 L234.53818,29.772755 L237.19532,29.393164 L239.47287,29.772755 L244.78714,28.633982 L250.48101,27.115618 L251.24019,24.838073 L250.10141,21.042163 L245.92591,19.523799 L243.26878,16.487071 L242.13,13.829934 L239.47287,13.070752 L237.57491,11.931979 L236.81573,9.654433 L239.09328,4.719751 L241.75041,2.442205 L244.40755,1.683023 L247.44428,2.821796 L251.61978,6.238115 L253.89732,6.238115 L256.55446,4.719751 L259.97078,4.719751 L264.14628,7.756479 L269.08096,10.793206 L270.97892,13.070752 L272.49728,16.10748 L271.7381,19.523799 L268.70137,21.801345 L267.5626,24.078891 L269.08096,26.736028 L271.7381,25.976846 L273.63606,24.838073 L276.29319,24.838073 L278.95033,26.736028 L278.57074,29.393164 L275.53401,31.67071 L274.77483,34.707438 L276.29319,36.984984 L281.98706,39.26253 L285.40338,42.299258 L290.33806,41.540076 L293.37479,39.26253 L295.65233,35.087029 L298.68906,33.948256 L302.48497,33.948256 L306.28088,35.46662 L311.59515,35.846211 L313.8727,34.707438 L313.8727,31.67071 L313.49311,27.115618 L315.77065,24.838073 L316.52984,21.042163 L315.77065,18.764617 L313.49311,16.487071 L311.97474,13.829934 L313.11352,11.552388 L317.28902,10.793206 L321.84411,12.31157 L324.88084,14.589116 L327.53797,14.209525 L329.81552,11.552388 L331.71348,10.034024 L333.61143,11.172797 L333.61143,13.829934 L334.37061,16.10748 L337.40734,16.10748 L341.20325,16.866662 L343.4808,20.282981 L344.23998,23.319709 L343.1012,25.597255 L342.72161,30.911528 L344.99916,35.46662 L351.45221,40.401303 L351.45221,45.715576 L352.59098,49.891077 L354.86852,50.270668 L357.52566,48.372713 L360.56239,46.854349 L363.21953,47.993122 L367.01544,51.409441 L371.19094,52.168623 L376.8848,52.927805 L381.0603,55.205351 L385.61539,58.242079 L389.4113,58.62167 L393.20721,58.62167 L395.48476,57.482897 L398.52149,58.242079 L400.03985,62.41758 L404.59494,68.870626 L408.39085,70.009399 L410.28881,68.870626 L413.32554,67.731853 L415.60308,67.352262 L417.50104,68.870626 L418.63981,72.666536 L419.39899,80.25836 L421.29695,81.39713 L423.95408,80.63795 L426.23163,77.221628 L429.26836,74.564491 L433.44386,74.564491 L436.48059,77.221628 L439.13772,77.601219 L442.55404,74.564491 L446.34995,72.286945 L452.803,73.425718 L457.73768,76.462446 L463.05195,81.77672 L464.57032,85.19304 L464.57032,87.85018 L462.29277,90.12772 L460.01523,93.16445 L458.49686,96.20118 L455.46013,99.6175 L450.14586,99.99709 L444.07241,104.55218 L441.03568,106.82972 L440.2765,110.24604 L442.17445,114.04195 L444.83159,116.3195 L447.10913,120.11541 L451.28463,120.495 L455.46013,122.01336 L456.21932,124.6705 L457.73768,128.08682 L461.53359,129.60518 L464.57032,131.50314 L467.22745,137.57659 L471.78255,142.51128 L475.19887,147.82555 L476.33764,152.00105 L477.856,157.31532 L482.0315,163.38878 L486.207,165.28673 L491.14169,166.04592 L494.55801,164.52755 L499.87228,158.07451 L504.80696,152.76023 L508.98246,150.48269 L513.53755,148.20514 L518.85183,147.44596 L523.40692,146.68678 L525.68447,144.78882 L526.44365,136.81741 L523.40692,133.78068 L518.09265,130.74396 L515.8151,125.42968 L513.15796,120.87459 L509.74164,117.45827 L509.36205,114.80113 L511.6396,112.52359 L514.67633,111.76441 L518.85183,111.76441 L523.78651,113.66236 L532.89669,117.45827 L542.76606,120.87459 L545.80279,124.29091 L549.21911,127.32764 L553.7742,129.98477 L557.9497,131.12355 L559.08847,132.64191 L560.22724,136.43782 L560.98643,139.47455 L563.26397,139.85414 L565.16193,138.33578 L567.43947,138.33578 L569.33743,140.23373 L571.99457,141.3725 L575.03129,141.3725 L576.54966,139.85414 L581.86393,139.85414 L588.31698,139.85414 L590.97411,138.71537 L595.52921,136.05823 L597.80675,132.64191 L599.70471,131.50314 L603.12103,132.64191 L603.50062,136.43782 L603.50062,138.33578 L602.36184,140.61332 L602.74143,142.51128 L604.2598,144.78882 L605.39857,147.44596 L603.50062,150.48269 L597.42716,153.89901 L592.11289,155.03778 L589.07616,155.41737 L587.93739,158.83369 L590.21493,162.25001 L594.77002,166.04592 L598.94552,166.42551 L601.98225,167.94387 L603.88021,171.73978 L605.39857,176.67446 L608.81489,180.84997 L612.99039,184.26628 L616.02712,186.92342 L621.72098,187.30301 L625.51689,186.16424 L627.41485,184.64587 L632.72912,184.26628 L635.76585,182.74792 L635.00667,179.3316 L633.10871,177.43365 L633.10871,175.91528 L635.38626,174.77651 L639.56176,174.77651 L641.83931,177.43365 L641.83931,180.84997 L643.73726,184.64587 L647.91276,186.16424 L652.08826,188.06219 L657.02294,190.71933 L660.81885,195.65401 L663.85558,196.79279 L668.41067,196.0336 L669.92904,194.89483 L674.10454,194.51524 L678.28004,196.4132 L682.07595,198.69074 L685.49227,199.07033 L687.76981,198.69074 L690.42695,197.55197 L693.46368,198.69074 L693.84327,203.62542 L694.98204,207.42133 L693.46368,211.59683 L693.08409,215.39274 L695.36163,219.56824 L697.63918,224.88252 L699.53713,229.8172 L701.81468,231.71516 L706.36977,232.47434 L709.02691,235.13148 L711.68405,236.64984 L715.85955,237.40902 L717.7575,239.68657 L718.51668,245.00084 L720.79423,249.55593 L721.55341,254.49061 L723.83096,258.66612 L724.21055,262.84162 L718.51668,265.49875 L716.659317,266.613169 Z M707.952967,270.651938 L701.43509,269.67425 L697.25959,270.81303 L697.194812,270.798635 L697.58532,270.91879 L700.16977,270.21395 L706.79964,270.67316 L707.952967,270.651938 Z M693.024659,270.05385 L691.56572,270.05385 L691.477879,270.130711 L693.024659,270.05385 Z M688.531143,272.709105 L688.529,272.71098 L685.11268,278.40485 L683.167914,280.155138 L685.36792,278.20224 L688.531143,272.709105 Z M680.055613,282.956205 L677.52086,285.23748 L674.48413,288.6538 L674.118677,289.628345 L674.59012,288.55291 L676.50179,286.74159 L680.055613,282.956205 Z M671.676807,295.198628 L667.158141,297.960034 L671.50588,295.58854 L671.676807,295.198628 Z M658.119882,302.403365 L654.7454,303.07826 L652.835352,304.224291 L654.98892,303.14752 L658.119882,302.403365 Z M648.068348,311.118085 L647.91276,311.42926 L647.566809,317.310439 L647.67341,316.68276 L648.068348,311.118085 Z M647.227149,319.310407 L645.25562,328.51086 L641.51289,336.676815 L642.60704,334.82518 L645.42644,328.48153 L646.79556,321.85166 L647.227149,319.310407 Z M639.978493,339.273482 L638.599792,341.341534 L639.55269,339.99407 L639.978493,339.273482 Z M634.936597,345.553366 L631.59035,347.87 L628.414567,347.87 L628.49084,347.87979 L631.72888,347.96099 L634.936597,345.553366 Z M624.430667,347.496239 L624.37812,347.4904 L622.890881,348.572029 L624.430667,347.496239 Z M619.251854,353.379435 L619.06385,353.94345 L617.54548,359.63732 L616.452512,362.642989 L617.70234,359.96477 L619.12273,353.8048 L619.251854,353.379435 Z M613.204677,364.440028 L612.6108,364.572 L610.441935,364.812984 L612.53345,364.66377 L613.204677,364.440028 Z M604.834502,369.109372 L604.28201,370.951015 L604.54515,370.53751 L604.834502,369.109372 Z M604.174787,371.119509 L601.580701,374.001826 L602.9005,373.12196 L604.174787,371.119509 Z M593.465372,376.781569 L590.21493,377.47809 L585.28025,379.37605 L585.003097,379.653203 L585.48649,379.30112 L593.465372,376.781569 Z M578.358844,380.706366 L577.968497,380.594839 L577.99581,380.64036 L578.358844,380.706366 Z M576.530086,378.487711 L576.17007,377.85768 L573.13334,376.71891 L570.4762,377.85768 L569.479026,379.054294 L570.71236,377.82096 L573.14301,376.84058 L576.00299,377.81027 L576.530086,378.487711 Z M568.357247,380.172064 L565.960665,380.571492 L566.71821,380.64036 L568.357247,380.172064 Z M561.935101,380.091316 L559.08847,378.99646 L554.882385,377.225476 L560.84446,379.93551 L561.935101,380.091316 Z M549.450323,374.504177 L548.08033,373.68218 L543.911797,372.987426 L548.15717,373.82681 L549.450323,374.504177 Z M543.646304,372.943177 L543.52524,372.923 L538.97015,374.06177 L538.950398,374.079328 L541.72168,373.50002 L543.646304,372.943177 Z M535.352419,377.501322 L533.65588,380.89441 L533.524179,381.210491 L535.352419,377.501322 Z M525.534674,392.364216 L524.92528,393.04132 L522.26815,398.3556 L522.217115,398.466175 L524.89712,393.16535 L525.534674,392.364216 Z M521.193815,400.683321 L519.9906,403.29028 L519.917233,403.803847 L521.193815,400.683321 Z M519.49327,406.771597 L519.23142,408.60455 L518.048475,411.561919 L518.31852,411.18385 L519.49327,408.36445 L519.49327,406.771597 Z M716.659317,266.613169 L714.96093,267.48637 L711.21242,269.50908 L709.00603,270.63256 L707.952967,270.651938 L709.02691,270.81303 L712.82282,268.91507 L716.659317,266.613169 Z M697.194812,270.798635 L694.53097,269.979 L693.024659,270.05385 L693.84327,270.05385 L697.194812,270.798635 Z M691.477879,270.130711 L691.43604,270.13279 L688.66791,272.4716 L688.531143,272.709105 L691.477879,270.130711 Z M683.167914,280.155138 L680.27167,282.72607 L680.055613,282.956205 L683.167914,280.155138 Z M674.118677,289.628345 L671.676807,295.198628 L671.82699,295.10685 L673.34536,291.69053 L674.118677,289.628345 Z M667.158141,297.960034 L666.33698,298.40794 L660.53369,301.82966 L658.119882,302.403365 L660.43926,301.93949 L664.99435,299.28235 L667.158141,297.960034 Z M652.835352,304.224291 L652.53689,304.37352 L650.77901,305.3347 L648.07285,311.05465 L648.068348,311.118085 L650.94949,305.35581 L652.835352,304.224291 Z M647.566809,317.310439 L647.227149,319.310407 L647.53317,317.88231 L647.566809,317.310439 Z M641.51289,336.676815 L639.978493,339.273482 L641.08012,337.62104 L641.51289,336.676815 Z M638.599792,341.341534 L636.39581,344.45812 L634.936597,345.553366 L636.52503,344.45368 L638.599792,341.341534 Z M628.414567,347.87 L624.59704,347.38 L624.430667,347.496239 L627.79444,347.87 L628.414567,347.87 Z M622.890881,348.572029 L620.12448,350.50481 L619.251854,353.379435 L620.20262,350.52713 L622.890881,348.572029 Z M616.452512,362.642989 L616.0577,363.48902 L613.204677,364.440028 L616.02712,363.81282 L616.452512,362.642989 Z M610.441935,364.812984 L609.09035,364.90941 L605.20942,367.25891 L604.834502,369.109372 L605.39857,367.22914 L609.19448,364.95159 L610.441935,364.812984 Z M604.28201,370.951015 L604.174787,371.119509 L604.2598,371.02505 L604.28201,370.951015 Z M601.580701,374.001826 L600.0811,375.00156 L595.3821,376.17631 L593.465372,376.781569 L595.52921,376.33932 L600.84348,374.82096 L601.580701,374.001826 Z M585.003097,379.653203 L583.33988,380.86462 L580.58026,381.11026 L578.358844,380.706366 L580.34557,381.274 L583.76189,380.89441 L585.003097,379.653203 Z M577.968497,380.594839 L577.29096,379.46561 L576.530086,378.487711 L577.68843,380.51482 L577.968497,380.594839 Z M569.479026,379.054294 L568.36286,380.17046 L568.357247,380.172064 L568.57825,380.13523 L569.479026,379.054294 Z M565.960665,380.571492 L564.13376,380.40541 L561.935101,380.091316 L564.02315,380.89441 L565.960665,380.571492 Z M554.882385,377.225476 L553.09111,376.41126 L549.450323,374.504177 L551.87624,375.95973 L554.882385,377.225476 Z M543.911797,372.987426 L543.66323,372.93828 L543.646304,372.943177 L543.911797,372.987426 Z M538.950398,374.079328 L538.93216,374.08314 L535.60229,376.99438 L535.352419,377.501322 L535.55383,377.0985 L538.950398,374.079328 Z M533.524179,381.210491 L532.41552,383.45976 L531.64871,385.38212 L527.01167,390.50826 L525.534674,392.364216 L531.75792,385.4495 L533.524179,381.210491 Z M522.217115,398.466175 L521.60782,399.67131 L521.193815,400.683321 L522.217115,398.466175 Z M519.917233,403.803847 L519.49327,404.8402 L519.49327,406.771597 L519.917233,403.803847 Z M518.048475,411.561919 L517.60299,412.18561 L517.151511,412.525248 L517.71306,412.40046 L518.048475,411.561919 Z" id="Combined-Shape" stroke="#F3F3F3" stroke-width="3" fill-rule="nonzero"></path>
    </g>
</svg>