<?xml version="1.0" encoding="UTF-8"?>
<svg width="512px" height="512px" viewBox="0 0 512 512" version="1.1" xmlns="http://www.w3.org/2000/svg" xmlns:xlink="http://www.w3.org/1999/xlink">
    <!-- Generator: Sketch 43.2 (39069) - http://www.bohemiancoding.com/sketch -->
    <title>wedding-rings-engagement-svgrepo-com (1)</title>
    <desc>Created with Sketch.</desc>
    <defs></defs>
    <g id="Page-1" stroke="none" stroke-width="1" fill="none" fill-rule="evenodd">
        <g id="wedding-rings-engagement-svgrepo-com-(1)" fill-rule="nonzero" fill="#8899a7">
            <path d="M368.095,142.711 C351.194,74.774 296.628,19.062 223.558,4.392 C122.583,-15.879 23.944,49.779 3.674,150.754 C-16.183,249.668 46.424,346.33 143.905,369.288 C160.806,437.225 215.37,492.937 288.442,507.607 C300.799,510.087 313.115,511.281 325.262,511.281 C412.379,511.281 490.535,449.863 508.325,361.245 C528.183,262.331 465.577,165.67 368.095,142.711 Z M142.082,287.723 C141.073,292.749 140.286,297.768 139.696,302.772 C94.322,284.162 62.279,239.514 62.279,187.515 C62.279,118.856 118.137,62.998 186.796,62.998 C238.304,62.998 282.606,94.435 301.527,139.129 C273.306,142.708 246.082,152.78 221.71,169.003 C180.181,196.647 151.902,238.81 142.082,287.723 Z M310.589,200.93 C304.425,258.198 259.282,303.961 202.299,311.068 C208.462,253.8 253.605,208.038 310.589,200.93 Z M326.091,449.001 C274.515,449.001 230.164,417.479 211.286,372.691 C288.213,362.449 353.811,304.513 369.918,224.276 C370.95,219.133 371.748,214 372.341,208.879 C418.165,227.278 450.606,272.161 450.606,324.483 C450.608,393.143 394.75,449.001 326.091,449.001 Z" id="Shape"></path>
        </g>
    </g>
</svg>